<?xml version="1.0" standalone="no"?>
<!DOCTYPE svg PUBLIC "-//W3C//DTD SVG 20010904//EN"
 "http://www.w3.org/TR/2001/REC-SVG-20010904/DTD/svg10.dtd">
<svg version="1.0" xmlns="http://www.w3.org/2000/svg"
 width="200.000000pt" height="200.000000pt" viewBox="0 0 200.000000 200.000000"
 preserveAspectRatio="xMidYMid meet">

<g transform="translate(0.000000,200.000000) scale(0.100000,-0.100000)"
fill="#000000" stroke="none">
<path d="M945 1305 c-33 -7 -87 -24 -120 -38 -36 -15 -92 -27 -140 -32 -127
-11 -225 -53 -225 -95 0 -16 4 -16 36 -5 19 6 43 19 52 29 16 15 15 16 -17 10
-22 -5 -32 -4 -28 3 9 15 112 40 192 48 40 3 100 18 140 35 67 27 76 28 215
25 141 -3 239 -18 305 -47 27 -12 12 -14 -140 -18 l-170 -6 180 -2 c179 -2
179 -2 160 18 -36 35 -165 62 -310 63 -101 1 -119 3 -85 10 58 11 216 2 306
-17 40 -8 119 -31 175 -50 101 -33 103 -34 59 -36 -25 -1 -38 -4 -30 -7 8 -2
24 -8 35 -13 25 -11 105 -18 105 -9 0 4 -7 10 -16 13 -9 3 -14 12 -12 18 3 8
-11 17 -36 24 -23 6 -81 23 -131 38 -184 55 -368 70 -500 41z"/>
<path d="M1486 1291 c-31 -12 -1 -24 63 -27 53 -2 81 8 81 27 0 11 -117 11
-144 0z"/>
<path d="M1619 1264 l-24 -26 23 7 c19 6 31 -1 66 -37 36 -38 45 -43 64 -35
12 6 22 13 22 16 0 15 -41 65 -66 82 -39 25 -56 24 -85 -7z"/>
<path d="M1747 1258 c57 -68 67 -157 28 -255 -24 -60 -37 -44 -14 17 20 52 26
150 9 150 -5 0 -20 -5 -34 -11 -21 -10 -24 -15 -14 -32 14 -27 -7 -123 -32
-144 -10 -9 -16 -22 -13 -29 4 -12 -96 -14 -606 -14 l-611 0 6 26 c8 30 -7 44
-49 44 -26 0 -28 2 -21 35 l6 35 -42 0 c-40 0 -42 1 -36 25 6 23 4 25 -29 25
-31 0 -35 -3 -35 -25 0 -20 5 -25 25 -25 24 0 26 -3 23 -37 -3 -37 -2 -38 35
-41 37 -3 38 -4 31 -38 l-6 -34 41 0 c22 0 41 -1 41 -3 0 -1 -4 -17 -9 -35 -8
-27 -7 -32 8 -32 9 0 27 -9 39 -20 12 -11 24 -20 28 -20 3 0 4 9 1 20 -5 19 0
20 129 20 132 0 134 0 134 -22 0 -17 3 -19 9 -9 7 11 9 11 14 0 4 -12 7 -11
16 1 7 10 11 11 11 3 0 -20 18 -15 25 7 6 19 15 20 135 20 123 0 128 -1 123
-20 -4 -15 0 -20 15 -20 15 0 19 5 15 20 -5 19 0 20 146 20 126 0 151 -2 151
-15 0 -9 -6 -12 -15 -9 -8 4 -15 2 -15 -4 0 -13 24 -22 37 -14 5 4 12 15 16
25 5 14 19 17 79 17 l73 0 -25 -21 c-57 -45 -78 -58 -84 -52 -3 3 -6 2 -6 -4
0 -13 -97 -56 -110 -48 -5 3 -12 0 -15 -5 -10 -16 -147 -9 -141 7 3 7 -1 10
-9 7 -8 -4 -28 8 -46 25 l-31 31 -231 -2 -232 -2 205 -6 c271 -9 260 -9 260
-20 0 -5 -37 -11 -82 -13 l-83 -3 86 -2 c69 -2 98 -7 143 -28 57 -26 97 -28
191 -11 45 8 125 45 125 57 0 6 4 9 9 5 14 -8 109 73 156 132 42 54 64 69 44
31 -25 -48 -91 -117 -146 -154 -77 -51 -88 -62 -33 -33 24 13 74 54 111 90
148 146 181 329 77 425 l-32 29 31 -37z"/>
<path d="M683 1183 c15 -2 37 -2 50 0 12 2 0 4 -28 4 -27 0 -38 -2 -22 -4z"/>
<path d="M1367 1173 c-3 -5 19 -8 48 -8 29 0 48 3 42 7 -16 10 -85 10 -90 1z"/>
<path d="M380 1120 c0 -13 7 -20 20 -20 13 0 20 7 20 20 0 13 -7 20 -20 20
-13 0 -20 -7 -20 -20z"/>
<path d="M501 1046 c-7 -8 -11 -27 -9 -43 2 -23 8 -29 36 -31 24 -2 32 1 32
12 0 19 -11 21 -28 4 -9 -9 -12 -5 -12 19 0 32 20 57 28 35 5 -17 22 -15 22 3
0 20 -53 20 -69 1z"/>
<path d="M595 1036 c-23 -35 -12 -66 24 -66 36 0 53 21 49 57 -4 39 -50 45
-73 9z m41 -42 c-3 -8 -10 -14 -16 -14 -14 0 -13 27 2 53 l13 22 3 -23 c2 -13
1 -30 -2 -38z"/>
<path d="M696 1033 c-4 -15 -9 -37 -13 -48 -3 -14 -2 -17 5 -10 6 6 12 21 15
35 4 24 4 23 12 -7 11 -49 41 -45 50 8 4 22 4 43 1 46 -3 4 -6 -6 -6 -20 0
-33 -17 -36 -22 -5 -5 34 -34 35 -42 1z"/>
<path d="M793 1034 c-20 -31 -9 -57 27 -62 24 -4 48 13 37 25 -4 4 -13 1 -19
-5 -20 -20 -30 -13 -23 16 7 30 25 54 25 34 0 -7 7 -12 15 -12 8 0 15 7 15 15
0 27 -57 19 -77 -11z"/>
<path d="M890 1046 c0 -7 -3 -28 -6 -45 -6 -29 -5 -31 22 -30 16 0 23 3 17 6
-19 7 -16 33 5 34 10 0 12 3 5 6 -19 7 -16 31 5 36 9 3 2 5 -15 6 -22 1 -33
-4 -33 -13z"/>
<path d="M969 1044 c-12 -15 -11 -19 9 -32 29 -19 28 -34 -3 -26 -15 4 -25 2
-25 -5 0 -12 38 -15 64 -5 23 9 20 41 -4 49 -11 3 -20 11 -20 16 0 6 9 7 20 4
11 -4 20 -2 20 4 0 17 -46 13 -61 -5z"/>
<path d="M1057 1043 c-16 -60 -17 -73 -3 -73 7 0 17 12 20 28 4 15 9 35 12 45
3 11 0 17 -10 17 -8 0 -17 -8 -19 -17z"/>
<path d="M1111 1046 c-7 -8 -11 -27 -9 -43 2 -22 9 -29 30 -31 32 -4 63 35 53
68 -8 24 -56 28 -74 6z m49 -14 c0 -10 -7 -27 -15 -38 -14 -18 -14 -17 -15 12
0 17 3 34 7 37 12 13 23 7 23 -11z"/>
<path d="M1205 1019 c-4 -22 -4 -43 -1 -46 3 -4 6 5 6 20 0 14 5 29 10 32 6 4
10 -5 10 -20 0 -24 24 -45 36 -32 8 7 24 81 19 85 -2 2 -8 -11 -13 -29 l-10
-34 -7 33 c-11 48 -41 44 -50 -9z"/>
<path d="M1310 1019 c-12 -23 -19 -44 -16 -47 3 -3 6 0 6 6 0 7 9 12 20 12 11
0 20 -4 20 -10 0 -5 7 -10 15 -10 16 0 18 12 9 59 -9 43 -30 39 -54 -10z m20
-4 c0 -8 -4 -15 -10 -15 -5 0 -7 7 -4 15 4 8 8 15 10 15 2 0 4 -7 4 -15z"/>
<path d="M1396 1029 c-3 -17 -6 -38 -6 -45 0 -22 21 -16 28 8 l5 22 8 -22 c10
-26 31 -29 28 -4 -1 9 1 25 5 34 11 24 -1 38 -33 38 -24 0 -30 -5 -35 -31z
m52 9 c-2 -6 -10 -14 -16 -16 -7 -2 -10 2 -6 12 7 18 28 22 22 4z"/>
<path d="M1491 1023 c-14 -49 -14 -53 4 -53 8 0 15 3 15 8 0 4 4 24 9 45 7 29
6 37 -5 37 -7 0 -18 -17 -23 -37z"/>
<path d="M1553 1048 c-31 -40 -15 -82 27 -76 32 4 57 52 40 74 -15 17 -54 18
-67 2z m47 -7 c0 -20 -20 -61 -30 -61 -13 0 -13 12 0 44 9 25 30 36 30 17z"/>
<path d="M210 984 c-18 -46 -13 -54 31 -54 39 0 41 -1 35 -26 -6 -24 -5 -25
26 -22 25 2 34 8 36 26 3 18 -1 22 -23 22 -25 0 -26 2 -20 31 8 36 -4 49 -48
49 -20 0 -30 -7 -37 -26z"/>
<path d="M470 831 c0 -5 5 -13 10 -16 6 -3 10 -2 10 4 0 5 -4 13 -10 16 -5 3
-10 2 -10 -4z"/>
</g>
</svg>
